<svg width="203" height="47" viewBox="0 0 203 47" fill="none" xmlns="http://www.w3.org/2000/svg">
<path d="M10.5783 21.8916C13.6856 21.8916 17.4384 20.8721 21.0323 18.7924C21.9001 18.2903 22.7375 17.7372 23.54 17.1358C27.9229 13.8748 30.4408 9.62745 30.409 6.45438C30.4238 5.52349 30.1909 4.60549 29.7345 3.79486C29.0459 2.58424 27.8187 1.69476 26.1774 1.20032C24.8903 1.04369 23.5921 1.00105 22.2976 1.07289C22.6354 1.35719 22.9224 1.69722 23.1462 2.07834C23.4864 2.6765 23.6618 3.35472 23.6544 4.04335C23.6366 4.90046 23.4324 5.74333 23.056 6.513C22.4577 7.78732 21.4655 9.04763 20.1951 10.1856C20.4684 11.0188 20.4358 11.9224 20.1033 12.7336C19.7708 13.5448 19.1603 14.2101 18.3818 14.6094C17.6033 15.0088 16.7082 15.1159 15.8579 14.9115C15.0076 14.707 14.2581 14.2045 13.7447 13.4946C13.2313 12.7846 12.9877 11.914 13.0579 11.0397C13.1281 10.1655 13.5075 9.3452 14.1276 8.72685C14.7477 8.10849 15.5677 7.7328 16.4397 7.66754C17.3116 7.60228 18.1781 7.85176 18.8828 8.37097C19.8991 7.43306 20.6448 6.45183 21.0425 5.56745C21.2818 5.09205 21.4162 4.57046 21.4363 4.03825C21.446 3.74046 21.3744 3.44567 21.2292 3.18573C20.9129 2.60081 20.0287 2.13313 18.5271 2.12931C16.9607 2.12931 14.8925 2.68109 12.8548 3.79868C12.7417 3.86112 12.6261 3.92611 12.5143 3.98473C8.37285 6.37469 5.12645 10.0604 3.27225 14.4775C3.13346 15.0378 3.06349 15.613 3.06391 16.1902C3.04795 17.1213 3.28088 18.0396 3.73849 18.8498C4.8234 20.7714 7.27017 21.8865 10.5783 21.8916ZM15.7869 31.3216C19.0721 30.729 22.5974 29.4471 26.0198 27.4668C34.0868 22.8231 38.9956 15.6627 38.946 10.2761C38.9618 8.99863 38.6652 7.73676 38.0822 6.60092C36.1721 4.89777 33.9793 3.54349 31.6032 2.59954C31.6197 2.62885 31.64 2.65561 31.6578 2.68492C32.3085 3.83345 32.6434 5.13471 32.6284 6.45565C32.5966 10.7361 29.6049 15.3466 24.8689 18.9198C23.9962 19.5713 23.0868 20.1716 22.1452 20.7179C18.2425 22.9735 14.1582 24.1127 10.5846 24.1166H10.5643C6.81664 24.1166 3.48187 22.8218 1.82401 19.9635C1.8075 19.9342 1.79352 19.9036 1.77828 19.8743C1.40478 22.4096 1.47744 24.991 1.99297 27.5012C3.67497 30.2002 7.14948 31.6988 11.6657 31.7065C13.0494 31.6998 14.4298 31.5702 15.7907 31.3191L15.7869 31.3216ZM42.5082 12.0499C42.0967 11.3373 41.6454 10.6485 41.1565 9.98681C41.1565 10.0824 41.1641 10.178 41.1641 10.2735C41.1159 16.9383 35.6468 24.4186 27.1314 29.3885C23.4981 31.4924 19.7428 32.8661 16.1858 33.5147C14.6925 33.7904 13.1777 33.932 11.6594 33.9378H11.634C8.51134 33.9378 5.63518 33.2688 3.37643 31.8785C3.70466 32.6332 4.07406 33.3691 4.48294 34.0831C5.39216 35.6664 6.49492 37.1296 7.76562 38.4387C9.62039 39.6621 12.1726 40.3235 15.219 40.326C19.8203 40.326 25.4024 38.7968 30.7622 35.69C31.1522 35.4644 31.5359 35.2312 31.9119 34.9955C31.6492 34.1533 31.6956 33.2445 32.0428 32.4336C32.39 31.6227 33.015 30.9633 33.8048 30.5744C34.5945 30.1856 35.497 30.0931 36.3488 30.3137C37.2007 30.5343 37.9457 31.0534 38.4492 31.7771C38.9526 32.5008 39.1813 33.3814 39.0938 34.2595C39.0063 35.1376 38.6084 35.9553 37.9721 36.5648C37.3358 37.1742 36.5031 37.5351 35.6246 37.5822C34.7461 37.6293 33.8797 37.3595 33.1823 36.8216C32.7542 37.0918 32.3172 37.3581 31.8725 37.6168C26.2079 40.8931 20.3031 42.5472 15.2203 42.551H15.205C14.4837 42.5505 13.7629 42.5135 13.0454 42.4401C17.251 44.7249 22.0853 45.5698 26.8135 44.8464C31.5417 44.123 35.9051 41.8709 39.2405 38.4324C42.576 34.9939 44.701 30.557 45.2927 25.7962C45.8843 21.0354 44.9102 16.211 42.5184 12.0563L42.5082 12.0499ZM36.8474 33.911C36.8479 33.6246 36.7637 33.3445 36.6054 33.1061C36.4471 32.8677 36.2219 32.6817 35.9582 32.5718C35.6946 32.4618 35.4043 32.4328 35.1242 32.4884C34.8441 32.5439 34.5867 32.6816 34.3846 32.884C34.1826 33.0863 34.0448 33.3442 33.989 33.6251C33.9331 33.906 33.9615 34.1972 34.0707 34.4619C34.1798 34.7266 34.3648 34.9528 34.6022 35.112C34.8395 35.2712 35.1187 35.3561 35.4042 35.3561C35.7863 35.3555 36.1526 35.2031 36.423 34.9323C36.6935 34.6615 36.846 34.2943 36.8474 33.911ZM15.2762 11.3287C15.2764 11.6146 15.3612 11.8941 15.5197 12.1318C15.6782 12.3694 15.9034 12.5546 16.1669 12.6639C16.4303 12.7732 16.7201 12.8018 16.9997 12.7459C17.2792 12.6901 17.536 12.5523 17.7376 12.3501C17.9392 12.1479 18.0765 11.8903 18.1322 11.6099C18.1878 11.3294 18.1594 11.0387 18.0504 10.7745C17.9415 10.5103 17.7568 10.2844 17.5199 10.1253C17.283 9.96631 17.0044 9.8813 16.7193 9.88104C16.3366 9.88104 15.9695 10.0336 15.6989 10.305C15.4282 10.5765 15.2762 10.9447 15.2762 11.3287Z" fill="white"/>
<path d="M79.8246 36.7771C79.8187 36.8633 79.7819 36.9445 79.7209 37.0056C79.66 37.0668 79.5791 37.1037 79.4931 37.1097H76.3933C76.3072 37.1038 76.2261 37.0668 76.165 37.0057C76.1038 36.9446 76.0667 36.8634 76.0605 36.7771V20.7855C76.0664 20.6989 76.1034 20.6174 76.1646 20.5561C76.2257 20.4947 76.307 20.4576 76.3933 20.4517H79.4931C79.5792 20.4579 79.6601 20.4951 79.721 20.5565C79.782 20.6178 79.8187 20.6991 79.8246 20.7855V36.7771Z" fill="white"/>
<path d="M86.108 31.5014C86.4395 31.5014 86.606 31.6403 86.6606 31.9181C86.9375 33.3339 88.1279 34.2221 90.7563 34.2221C93.414 34.2221 94.6043 33.223 94.6043 32.029C94.6043 31.2517 94.0504 30.5572 92.39 30.4195L88.0707 30.0576C84.694 29.7798 82.8952 28.2251 82.8952 25.7249C82.8952 22.8373 85.4143 20.1714 90.313 20.1714C95.378 20.1714 97.5923 22.5314 97.5923 25.1973C97.5923 25.4522 97.3979 25.6688 97.0663 25.6688H94.3274C94.0504 25.6688 93.884 25.586 93.8294 25.2521C93.663 24.2811 92.7216 23.3406 90.2863 23.3406C87.9615 23.3406 86.6606 24.2849 86.6606 25.507C86.6606 26.2576 87.1586 26.8119 88.6818 26.9228L92.9706 27.2847C96.8466 27.6147 98.3685 29.5645 98.3685 31.8582C98.3685 34.4681 96.1263 37.3837 90.7563 37.3837C85.6926 37.3837 82.8964 34.9625 82.8964 32.2202V31.9971C82.8977 31.9295 82.9124 31.8629 82.9397 31.801C82.9669 31.7392 83.0062 31.6834 83.0551 31.6369C83.1041 31.5904 83.1617 31.5541 83.2248 31.5302C83.2878 31.5063 83.355 31.4952 83.4224 31.4976L86.108 31.5014Z" fill="white"/>
<path d="M121.34 20.6747C121.343 20.6169 121.368 20.5624 121.408 20.5214C121.449 20.4804 121.503 20.4556 121.561 20.4517H128.619C132.576 20.4517 135.206 22.5059 135.206 25.7822C135.206 28.392 133.628 30.1964 130.473 30.8068V30.8629C130.473 30.8629 130.944 31.3624 131.498 32.057L135.123 36.6649C135.262 36.8319 135.289 36.9198 135.289 36.9708C135.289 37.0536 135.234 37.1097 135.123 37.1097H133.768C133.575 37.1097 133.547 37.0816 133.408 36.9147L128.731 30.9738H122.887V36.8879C122.883 36.9455 122.859 36.9996 122.818 37.0404C122.777 37.0812 122.723 37.1058 122.666 37.1097H121.558C121.501 37.1058 121.447 37.0812 121.406 37.0404C121.366 36.9996 121.341 36.9455 121.337 36.8879L121.34 20.6747ZM122.89 21.8407V29.586H128.535C131.829 29.586 133.656 28.1983 133.656 25.7822C133.656 23.2832 131.58 21.8407 128.563 21.8407H122.89Z" fill="white"/>
<path d="M140.685 36.8879C140.681 36.9455 140.657 36.9996 140.616 37.0404C140.575 37.0812 140.521 37.1058 140.464 37.1097H139.358C139.3 37.1061 139.246 37.0816 139.205 37.0408C139.164 37 139.139 36.9457 139.135 36.8879V20.6747C139.139 20.6167 139.163 20.5621 139.204 20.521C139.245 20.4799 139.3 20.4553 139.358 20.4517H140.464C140.522 20.4556 140.576 20.4804 140.616 20.5214C140.657 20.5624 140.682 20.6169 140.685 20.6747V36.8879Z" fill="white"/>
<path d="M161.803 29.8918C161.803 34.0003 158.952 37.3874 153.5 37.3874C148.601 37.3874 144.861 34.0831 144.861 28.7806C144.861 23.5559 148.598 20.1738 153.5 20.1738C158.952 20.1738 161.304 23.756 161.304 26.3925C161.304 26.5047 161.221 26.5595 161.049 26.5595H159.943C159.86 26.5595 159.749 26.5314 159.749 26.3925C159.528 23.9713 157.646 21.5628 153.494 21.5628C149.453 21.5628 146.41 24.2835 146.41 28.7806C146.41 33.2229 149.458 35.9997 153.494 35.9997C158.034 35.9997 160.22 33.2777 160.22 30.6131H152.194C152.129 30.6049 152.069 30.5754 152.023 30.5293C151.977 30.4831 151.948 30.423 151.94 30.3582V29.4662C151.948 29.4015 151.977 29.3414 152.023 29.2952C152.069 29.2491 152.129 29.2196 152.194 29.2114H161.798L161.803 29.8918Z" fill="white"/>
<path d="M182.144 36.8879C182.14 36.9455 182.116 36.9996 182.075 37.0404C182.035 37.0812 181.981 37.1058 181.923 37.1097H180.817C180.759 37.1061 180.705 37.0816 180.664 37.0408C180.623 37 180.598 36.9457 180.594 36.8879V30.0066H167.531V36.8879C167.527 36.9455 167.503 36.9996 167.462 37.0404C167.421 37.0812 167.367 37.1058 167.31 37.1097H166.203C166.146 37.1061 166.092 37.0816 166.051 37.0408C166.01 37 165.985 36.9457 165.981 36.8879V20.6747C165.985 20.6167 166.009 20.5621 166.05 20.521C166.091 20.4799 166.146 20.4553 166.203 20.4517H167.306C167.364 20.4556 167.418 20.4804 167.459 20.5214C167.499 20.5624 167.524 20.6169 167.527 20.6747V28.6137H180.594V20.6747C180.598 20.6167 180.623 20.5621 180.664 20.521C180.704 20.4799 180.759 20.4553 180.817 20.4517H181.923C181.981 20.4556 182.035 20.4804 182.076 20.5214C182.116 20.5624 182.141 20.6169 182.144 20.6747V36.8879Z" fill="white"/>
<path d="M185.549 21.8407C185.484 21.8327 185.424 21.8033 185.378 21.7571C185.332 21.7109 185.303 21.6507 185.295 21.5859V20.6938C185.303 20.629 185.332 20.5688 185.378 20.5226C185.424 20.4764 185.484 20.447 185.549 20.439H201.213C201.277 20.4472 201.337 20.4767 201.383 20.5228C201.429 20.569 201.459 20.6291 201.467 20.6938V21.5859C201.459 21.6506 201.429 21.7107 201.383 21.7569C201.337 21.803 201.277 21.8325 201.213 21.8407H194.156V36.888C194.152 36.9455 194.127 36.9997 194.087 37.0405C194.046 37.0812 193.992 37.1058 193.935 37.1097H192.828C192.771 37.1061 192.716 37.0817 192.675 37.0409C192.635 37.0001 192.61 36.9457 192.606 36.888V21.8407H185.549Z" fill="white"/>
<path d="M114.892 37.1095H117.952C117.983 37.1096 118.013 37.1019 118.04 37.087C118.067 37.0721 118.09 37.0506 118.107 37.0245C118.124 36.9983 118.134 36.9683 118.136 36.9373C118.138 36.9063 118.132 36.8752 118.119 36.847L111.64 22.744C111.626 22.7118 111.602 22.6844 111.572 22.6652C111.543 22.646 111.508 22.6357 111.473 22.6357C111.437 22.6357 111.403 22.646 111.373 22.6652C111.343 22.6844 111.319 22.7118 111.305 22.744L109.85 25.9579C109.84 25.9817 109.834 26.0076 109.834 26.0337C109.834 26.0599 109.84 26.0857 109.85 26.1095L114.72 36.9987C114.734 37.0322 114.758 37.0607 114.789 37.0805C114.82 37.1002 114.856 37.1103 114.892 37.1095Z" fill="white"/>
<path d="M110.676 20.4517H107.894C107.826 20.4516 107.76 20.4711 107.702 20.5076C107.645 20.5442 107.6 20.5964 107.571 20.6581L100.141 36.5451C100.115 36.5991 100.104 36.6587 100.107 36.7184C100.11 36.7781 100.129 36.8359 100.16 36.8867C100.192 36.9374 100.235 36.9794 100.287 37.0088C100.339 37.0382 100.397 37.054 100.457 37.0549L103.224 37.1071C103.293 37.108 103.36 37.0891 103.419 37.0525C103.477 37.0158 103.524 36.9632 103.553 36.9007L110.999 20.9627C111.024 20.9081 111.036 20.8479 111.032 20.7877C111.028 20.7274 111.01 20.6691 110.977 20.6181C110.945 20.5672 110.901 20.5252 110.848 20.4961C110.795 20.467 110.736 20.4517 110.676 20.4517Z" fill="white"/>
<path d="M64.6917 31.6148C64.6997 31.5978 64.7038 31.5793 64.7038 31.5606C64.7038 31.5419 64.6997 31.5234 64.6917 31.5065L59.6801 20.8123C59.5136 20.4797 59.426 20.4517 59.0995 20.4517H55.7736C55.6085 20.4517 55.5526 20.5358 55.5526 20.6186C55.5854 20.7656 55.6416 20.9063 55.719 21.0353L62.7608 35.7997C62.7718 35.8237 62.7897 35.844 62.8122 35.8579C62.8347 35.8718 62.8607 35.8788 62.8871 35.878C62.9135 35.8772 62.9391 35.8686 62.9607 35.8533C62.9823 35.838 62.9989 35.8167 63.0085 35.792L64.6917 31.6148Z" fill="white"/>
<path d="M78.5809 8.74317H75.0238C74.9695 8.74285 74.9163 8.75881 74.871 8.789C74.8257 8.8192 74.7905 8.86225 74.7698 8.91265L63.5027 36.9071C63.4934 36.9294 63.4899 36.9537 63.4923 36.9778C63.4947 37.0018 63.503 37.0249 63.5164 37.045C63.5299 37.065 63.5481 37.0814 63.5694 37.0927C63.5907 37.104 63.6145 37.1099 63.6386 37.1097H66.981C67.01 37.1096 67.0383 37.1009 67.0624 37.0848C67.0866 37.0688 67.1055 37.046 67.1169 37.0192L78.633 9.33063V9.32171C78.7096 9.19436 78.7649 9.05533 78.7969 8.91011C78.802 8.82727 78.7473 8.74317 78.5809 8.74317Z" fill="white"/>
</svg>
